jumper10dof24musc_withArms.osim_states
version=1
nRows=5
nColumns=101
inDegrees=yes

# SIMM Motion File Header:
name jumper10dof24musc_withArms.osim_states
datacolumns 101
datarows 5
otherdata 1
range 0.19985361 0.20157287
endheader
time	pelvis_tilt	pelvis_tx	pelvis_ty	hip_flexion_r	knee_angle_r	ankle_angle_r	hip_flexion_l	knee_angle_l	ankle_angle_l	lumbar_extension	lumbar_bending	lumbar_rotation	arm_flex_r	arm_add_r	arm_rot_r	elbow_flex_r	pro_sup_r	wrist_flex_r	wrist_dev_r	arm_flex_l	arm_add_l	arm_rot_l	elbow_flex_l	pro_sup_l	wrist_flex_l	wrist_dev_l	pelvis_tilt_u	pelvis_tx_u	pelvis_ty_u	hip_flexion_r_u	knee_angle_r_u	ankle_angle_r_u	hip_flexion_l_u	knee_angle_l_u	ankle_angle_l_u	lumbar_extension_u	lumbar_bending_u	lumbar_rotation_u	arm_flex_r_u	arm_add_r_u	arm_rot_r_u	elbow_flex_r_u	pro_sup_r_u	wrist_flex_r_u	wrist_dev_r_u	arm_flex_l_u	arm_add_l_u	arm_rot_l_u	elbow_flex_l_u	pro_sup_l_u	wrist_flex_l_u	wrist_dev_l_u	hamstrings_r.activation	hamstrings_r.fiber_length	bifemsh_r.activation	bifemsh_r.fiber_length	glut_max_r.activation	glut_max_r.fiber_length	iliopsoas_r.activation	iliopsoas_r.fiber_length	rect_fem_r.activation	rect_fem_r.fiber_length	vasti_r.activation	vasti_r.fiber_length	gastroc_r.activation	gastroc_r.fiber_length	soleus_r.activation	soleus_r.fiber_length	tib_ant_r.activation	tib_ant_r.fiber_length	ercspn_r.activation	ercspn_r.fiber_length	intobl_r.activation	intobl_r.fiber_length	extobl_r.activation	extobl_r.fiber_length	hamstrings_l.activation	hamstrings_l.fiber_length	bifemsh_l.activation	bifemsh_l.fiber_length	glut_max_l.activation	glut_max_l.fiber_length	iliopsoas_l.activation	iliopsoas_l.fiber_length	rect_fem_l.activation	rect_fem_l.fiber_length	vasti_l.activation	vasti_l.fiber_length	gastroc_l.activation	gastroc_l.fiber_length	soleus_l.activation	soleus_l.fiber_length	tib_ant_l.activation	tib_ant_l.fiber_length	ercspn_l.activation	ercspn_l.fiber_length	intobl_l.activation	intobl_l.fiber_length	extobl_l.activation	extobl_l.fiber_length
      0.19985361	    -65.77331612	     -0.07373547	      0.49617366	    159.97281932	   -112.76770836	    -15.24062153	    160.20003321	   -113.43207475	    -15.83569131	     32.83196576	      0.00049504	      0.00043033	     -2.84658630	     -4.00000000	     90.00000000	      0.00000000	      0.00000000	     -0.00000000	      0.00000000	     -2.84616374	     -4.00000000	     90.00000000	      0.00000000	      0.00000000	     -0.00000000	      0.00000000	     -4.49283296	     -0.35978380	     -1.50859263	    352.93688697	   -180.08841876	   -412.09521437	    352.92340810	   -177.49698672	   -413.22181204	    -53.17377817	      0.00095811	     -0.00220489	     81.91469069	      0.00000000	      0.00000000	      0.00000000	      0.00000000	     -0.00000000	      0.00000000	     81.91188147	     -0.00000000	     -0.00000000	      0.00000000	      0.00000000	     -0.00000000	      0.00000000	      0.00000000	      0.13148272	      0.28000273	      0.12211209	      0.00000000	      0.13652160	      0.00000000	      0.07358203	      0.60732818	      0.09052191	      0.00000000	      0.13686488	      0.00000000	      0.05840881	      0.95623396	      0.03315888	      0.05059731	      0.09029200	      0.73765529	      0.09096561	      0.48148157	      0.12547867	      0.44641152	      0.15712240	      0.00000000	      0.13128168	      0.28000273	      0.12201764	      0.00000000	      0.13642415	      0.00000000	      0.07374141	      0.60732818	      0.09088252	      0.00000000	      0.13710974	      0.00000000	      0.05788556	      0.95623396	      0.03277635	      0.05008251	      0.09074039	      0.73765528	      0.09096646	      0.48148157	      0.12547960	      0.44641152	      0.15712330
      0.20024053	    -65.77504876	     -0.07387458	      0.49558967	    160.10930149	   -112.83724106	    -15.39993567	    160.33651196	   -113.50060896	    -15.99544053	     32.81140462	      0.00049541	      0.00042948	     -2.81486603	     -4.00000000	     90.00000000	      0.00000000	      0.00000000	     -0.00000000	      0.00000000	     -2.81444455	     -4.00000000	     90.00000000	      0.00000000	      0.00000000	     -0.00000000	      0.00000000	     -4.46559176	     -0.35929625	     -1.51005514	    352.54438330	   -179.32728448	   -411.40364101	    352.54019809	   -176.75751418	   -412.52590083	    -53.10441814	      0.00095618	     -0.00222712	     82.04778167	      0.00000000	      0.00000000	      0.00000000	      0.00000000	     -0.00000000	      0.00000000	     82.04494872	     -0.00000000	     -0.00000000	      0.00000000	      0.00000000	     -0.00000000	      0.00000000	      0.00000000	      0.13140717	      0.28006637	      0.12210168	      0.00000000	      0.13646297	      0.00000000	      0.07366809	      0.60755752	      0.09062174	      0.00000000	      0.13689442	      0.00000000	      0.05831914	      0.95606492	      0.03305252	      0.05057659	      0.09040954	      0.73669508	      0.09098514	      0.48196946	      0.12546191	      0.44687645	      0.15711130	      0.00000000	      0.13120624	      0.28006636	      0.12200786	      0.00000000	      0.13636523	      0.00000000	      0.07382815	      0.60755752	      0.09098223	      0.00000000	      0.13713804	      0.00000000	      0.05779589	      0.95606492	      0.03267035	      0.05006466	      0.09085776	      0.73669507	      0.09098599	      0.48196946	      0.12546285	      0.44687645	      0.15711221
      0.20062745	    -65.77677165	     -0.07401351	      0.49500512	    160.24563279	   -112.90648044	    -15.55898178	    160.47284344	   -113.56885813	    -16.15492023	     32.79087135	      0.00049578	      0.00042861	     -2.78309430	     -4.00000000	     90.00000000	      0.00000000	      0.00000000	     -0.00000000	      0.00000000	     -2.78267392	     -4.00000000	     90.00000000	      0.00000000	      0.00000000	     -0.00000000	      0.00000000	     -4.44085284	     -0.35881355	     -1.51151325	    352.15586038	   -178.57329665	   -410.70888197	    352.16102317	   -176.02461028	   -411.82792581	    -53.03145337	      0.00095426	     -0.00224924	     82.18091853	      0.00000000	      0.00000000	      0.00000000	      0.00000000	     -0.00000000	      0.00000000	     82.17806196	     -0.00000000	     -0.00000000	      0.00000000	      0.00000000	     -0.00000000	      0.00000000	      0.00000000	      0.13133153	      0.28012738	      0.12209137	      0.00000000	      0.13640423	      0.00000000	      0.07376914	      0.60778061	      0.09072167	      0.00000000	      0.13691709	      0.00000000	      0.05822947	      0.95589902	      0.03294648	      0.05055598	      0.09052677	      0.73575051	      0.09100466	      0.48244187	      0.12544517	      0.44732601	      0.15710023	      0.00000000	      0.13113069	      0.28012738	      0.12199818	      0.00000000	      0.13630620	      0.00000000	      0.07392887	      0.60778061	      0.09108204	      0.00000000	      0.13716081	      0.00000000	      0.05770622	      0.95589902	      0.03256467	      0.05004692	      0.09097481	      0.73575050	      0.09100551	      0.48244187	      0.12544612	      0.44732601	      0.15710114
      0.20110016	    -65.77886623	     -0.07418298	      0.49429019	    160.41199012	   -112.99067618	    -15.75292755	    160.63920594	   -113.65185517	    -16.34939417	     32.76582698	      0.00049623	      0.00042754	     -2.74420847	     -4.00000000	     90.00000000	      0.00000000	      0.00000000	     -0.00000000	      0.00000000	     -2.74378945	     -4.00000000	     90.00000000	      0.00000000	      0.00000000	     -0.00000000	      0.00000000	     -4.42427187	     -0.35824529	     -1.51328902	    351.69419068	   -177.65339152	   -409.86385264	    351.71096323	   -175.13053692	   -410.97944684	    -52.92604007	      0.00095191	     -0.00227611	     82.34216386	      0.00000000	      0.00000000	      0.00000000	      0.00000000	     -0.00000000	      0.00000000	     82.33927862	     -0.00000000	     -0.00000000	      0.00000000	      0.00000000	     -0.00000000	      0.00000000	      0.00000000	      0.13123897	      0.28019851	      0.12207891	      0.00000000	      0.13633232	      0.00000000	      0.07388069	      0.60804493	      0.09084390	      0.00000000	      0.13695035	      0.00000000	      0.05811992	      0.95570055	      0.03281735	      0.05053095	      0.09066957	      0.73461732	      0.09102846	      0.48299877	      0.12542475	      0.44785512	      0.15708675	      0.00000000	      0.13103824	      0.28019851	      0.12198648	      0.00000000	      0.13623393	      0.00000000	      0.07404060	      0.60804493	      0.09120414	      0.00000000	      0.13719291	      0.00000000	      0.05759667	      0.95570055	      0.03243601	      0.05002538	      0.09111739	      0.73461731	      0.09102931	      0.48299877	      0.12542570	      0.44785512	      0.15708766
      0.20157287	    -65.78095514	     -0.07435220	      0.49357443	    160.57813163	   -113.07443854	    -15.94647387	    160.80535815	   -113.73443091	    -16.54346744	     32.74083513	      0.00049668	      0.00042646	     -2.70524659	     -4.00000000	     90.00000000	      0.00000000	      0.00000000	     -0.00000000	      0.00000000	     -2.70482894	     -4.00000000	     90.00000000	      0.00000000	      0.00000000	     -0.00000000	      0.00000000	     -4.41272236	     -0.35768670	     -1.51505815	    351.23965644	   -176.74250580	   -409.01636535	    351.26810310	   -174.24451156	   -410.13077878	    -52.81390333	      0.00094957	     -0.00230279	     82.50337108	      0.00000000	      0.00000000	      0.00000000	      0.00000000	     -0.00000000	      0.00000000	     82.50045737	     -0.00000000	     -0.00000000	      0.00000000	      0.00000000	     -0.00000000	      0.00000000	      0.00000000	      0.13114626	      0.28026607	      0.12206660	      0.00000000	      0.13626024	      0.00000000	      0.07400886	      0.60830047	      0.09096629	      0.00000000	      0.13697848	      0.00000000	      0.05801037	      0.95550658	      0.03268870	      0.05050610	      0.09081190	      0.73350654	      0.09105222	      0.48353422	      0.12540437	      0.44836298	      0.15707331	      0.00000000	      0.13094563	      0.28026607	      0.12197493	      0.00000000	      0.13616149	      0.00000000	      0.07416806	      0.60830047	      0.09132641	      0.00000000	      0.13722092	      0.00000000	      0.05748712	      0.95550658	      0.03230785	      0.05000398	      0.09125950	      0.73350653	      0.09105307	      0.48353422	      0.12540531	      0.44836298	      0.15707423
